<?xml version="1.0" encoding="UTF-8"?><svg id="Layer_2" xmlns="http://www.w3.org/2000/svg" xmlns:xlink="http://www.w3.org/1999/xlink" viewBox="0 0 1200 137.6"><defs><style>.cls-1{fill:#333;}.cls-1,.cls-2,.cls-3{stroke-width:0px;}.cls-2{fill:url(#radial-gradient);}.cls-3{fill:#24a08e;}</style><radialGradient id="radial-gradient" cx="266.94" cy="66.88" fx="266.94" fy="66.88" r="13.64" gradientTransform="translate(25.3 4.5) scale(.96)" gradientUnits="userSpaceOnUse"><stop offset="0" stop-color="#9efdca"/><stop offset="1" stop-color="#24a08e"/></radialGradient></defs><g id="Layer_1-2"><path class="cls-1" d="M82.98,35.71c0,11.19-5.79,20.26-15.82,26.05,14.86,5.79,23.74,17.76,23.93,33.97.39,23.93-16.79,39.95-43.81,39.95H1.93c-1.16,0-1.93-.77-1.93-1.93V3.87C0,2.51.77,1.74,1.93,1.74c11.19-.19,26.82,0,38.02,0,26.44,0,42.84,12.74,43.04,33.97ZM66,36.29c0-11.77-9.07-19.11-26.63-19.11h-22.58l-.19,40.14h24.7c17.56,0,24.7-8.88,24.7-21.03ZM16.6,69.67v50.56h29.33c17.56,0,28.37-10.04,28.37-25.47,0-14.28-9.84-25.28-26.63-25.28l-31.07.19Z"/><path class="cls-1" d="M160.37,133.94c0,.96-.58,1.74-1.74,1.74h-13.12c-.96,0-1.74-.77-1.74-1.74V3.67c0-1.16.77-1.93,1.74-1.93h13.12c1.16,0,1.74.77,1.74,1.93v130.26Z"/><path class="cls-1" d="M281.76,0c-41.3,0-68.7,27.6-68.7,68.7s27.4,68.7,68.7,68.7,68.7-27.4,68.7-68.7S323.06,0,281.76,0ZM281.76,121.01c-31.27,0-52.11-20.84-52.11-52.3s21.04-52.29,52.11-52.29,51.91,21.02,51.71,52.29c0,31.46-20.64,52.3-51.71,52.3Z"/><path class="cls-2" d="M294.61,68.71c0,7.91-5.19,13.15-13,13.15s-13.1-5.24-13.1-13.15,5.29-13.14,13.1-13.14,13.05,5.28,13,13.14Z"/><path class="cls-3" d="M395.81,118.69l6.56-11.19c.58-1.16,1.74-1.35,2.89-.39,4.63,4.05,18.53,13.9,38.21,13.9,17.18,0,27.98-8.49,27.98-21.23-.19-10.61-9.07-16.4-32.03-21.61-29.91-6.76-42.26-19.68-42.84-40.14C396,16.22,415.11-.19,442.51,0c22.58.19,35.51,9.46,39.17,12.93.77.58.97,1.74.39,2.89l-5.4,11.77c-.58,1.16-1.54,1.35-2.7.39-4.44-3.47-15.44-11.39-32.42-11.39s-28.18,8.88-28.18,20.65,6.37,17.18,32.23,23.74c28.95,7.33,41.88,17.37,42.46,36.86.77,23.74-15.25,39.95-45.93,39.75-26.63-.19-41.88-12.16-45.93-16.21-.77-.58-.97-1.74-.39-2.7Z"/><path class="cls-3" d="M557.72,120.23h58.47c1.16,0,1.93.77,1.93,1.93v11.77c0,.96-.77,1.74-1.93,1.74h-73.14c-1.16,0-1.93-.77-1.93-1.93V3.67c0-1.16.77-1.93,1.93-1.93h71.21c1.16,0,1.93.77,1.93,1.93v11.77c0,1.16-.77,1.93-1.93,1.93h-56.35v42.26h47.28c1.16,0,1.93.77,1.93,1.93v11.58c0,1.16-.77,1.93-1.93,1.93h-47.47v45.16Z"/><path class="cls-3" d="M774.44,1.74c1.16,0,1.93.77,1.93,1.93l-.19,130.07c0,1.16-.77,1.93-1.74,1.93h-15.63c-.97,0-1.74-.58-2.32-1.16l-69.47-106.33-.19,105.56c0,1.16-.77,1.93-1.74,1.93h-13.12c-.96,0-1.74-.77-1.74-1.93V3.67c0-1.16.77-1.93,1.93-1.93h15.63c1.35,0,1.74.58,2.32,1.35l69.47,106.14V3.67c0-1.16.77-1.93,1.93-1.93h12.93Z"/><path class="cls-3" d="M829.64,118.69l6.56-11.19c.58-1.16,1.74-1.35,2.89-.39,4.63,4.05,18.53,13.9,38.21,13.9,17.18,0,27.98-8.49,27.98-21.23-.19-10.61-9.07-16.4-32.03-21.61-29.91-6.76-42.26-19.68-42.84-40.14C829.83,16.22,848.93-.19,876.34,0c22.58.19,35.51,9.46,39.17,12.93.77.58.97,1.74.39,2.89l-5.4,11.77c-.58,1.16-1.54,1.35-2.7.39-4.44-3.47-15.44-11.39-32.42-11.39s-28.18,8.88-28.18,20.65,6.37,17.18,32.23,23.74c28.95,7.33,41.88,17.37,42.46,36.86.77,23.74-15.25,39.95-45.93,39.75-26.63-.19-41.88-12.16-45.93-16.21-.77-.58-.97-1.74-.39-2.7Z"/><path class="cls-3" d="M1006.22,82.41l-45.93-78.16c-.77-1.35-.39-2.32,1.35-2.32h14.47c1.16,0,2.12.58,2.7,1.54l35.89,63.88,35.89-63.88c.39-.96,1.54-1.54,2.7-1.54h14.28c1.74,0,2.32.96,1.35,2.32l-45.93,77.97v51.72c0,.96-.77,1.74-1.74,1.74h-13.12c-1.16,0-1.93-.77-1.93-1.74v-51.53Z"/><path class="cls-3" d="M1107.73,118.69l6.56-11.19c.58-1.16,1.74-1.35,2.89-.39,4.63,4.05,18.53,13.9,38.21,13.9,17.18,0,27.98-8.49,27.98-21.23-.19-10.61-9.07-16.4-32.03-21.61-29.91-6.76-42.26-19.68-42.84-40.14-.58-21.81,18.53-38.21,45.93-38.02,22.58.19,35.51,9.46,39.17,12.93.77.58.97,1.74.39,2.89l-5.4,11.77c-.58,1.16-1.54,1.35-2.7.39-4.44-3.47-15.44-11.39-32.42-11.39s-28.18,8.88-28.18,20.65,6.37,17.18,32.23,23.74c28.95,7.33,41.88,17.37,42.46,36.86.77,23.74-15.25,39.95-45.93,39.75-26.63-.19-41.88-12.16-45.93-16.21-.77-.58-.97-1.74-.39-2.7Z"/></g></svg>
